<svg version="1.1" xmlns="http://www.w3.org/2000/svg" viewBox="-739.7624718709012 -117.7897964161691 1479.5249437418022 229.3858734771634" fill="none" stroke="black" stroke-width="0.6%" vector-effect="non-scaling-stroke">
    <path d="M -738.76247 -79.51273 L -738.76247 -96.48219 L 0 0 L 738.76247 -20.3076 L 0 -116.7898 L -738.76247 -96.48219" />
    <path d="M 0 16.96946 L 0 0" />
    <path d="M -738.76247 -79.51273 L 0 16.96946 L 225.31892 10.77574 L 225.31892 110.59608 L 240.7704 110.17134" />
    <path d="M -513.44355 -50.08614 L -513.44355 14.11388 L 225.31892 110.59608" />
    <path d="M 738.76247 -3.33815 L 738.76247 -20.3076" />
    <path d="M 513.44355 2.85557 L 738.76247 -3.33815" />
    <path d="M 513.44355 2.85557 L 513.44355 102.67591" />
    <path d="M 497.99207 103.10065 L 513.44355 102.67591" />
    <path d="M 497.99207 3.28031 L 497.99207 103.10065" />
    <path d="M 240.7704 10.351 L 497.99207 3.28031" />
    <path d="M 240.7704 10.351 L 240.7704 110.17134" />
    <path d="M 240.7704 69.50757 L 497.99207 103.10065" />
</svg>