<svg version="1.1" xmlns="http://www.w3.org/2000/svg" viewBox="-739.7626317812777 -147.58418714859312 1479.5252635625554 287.14243711358904" fill="none" stroke="black" stroke-width="0.6%" vector-effect="non-scaling-stroke">
    <path d="M -738.76263 -104.14393 L -738.76263 -121.09579 L 0.00025 0.00045 L 738.76263 -25.48795 L -0.00025 -146.58419 L -738.76263 -121.09579" />
    <path d="M 0.00025 16.95231 L 0.00025 0.00045" />
    <path d="M -0.00184 16.95197 L 0.00025 16.95231 L 225.31914 9.17847 L 225.31914 108.8953 L 240.77061 108.3622" />
    <path d="M -0.00184 16.95197 L -0.00184 51.85286 L 205.77548 44.75324" />
    <path d="M -7.09069 50.69087 L -0.00184 51.85286" />
    <path d="M -7.09069 15.78998 L -7.09069 50.69087" />
    <path d="M -731.67169 -102.9816 L -7.09069 15.78998" />
    <path d="M -731.67169 -102.9816 L -731.67169 -68.08071 L -555.77686 -74.14934" />
    <path d="M -738.76055 -69.2427 L -731.67169 -68.08071" />
    <path d="M -738.76055 -104.14359 L -738.76055 -69.2427" />
    <path d="M -738.76263 -104.14393 L -738.76055 -104.14359" />
    <path d="M 738.76263 26.3648 L 738.76263 -25.48795" />
    <path d="M 723.31115 26.8979 L 738.76263 26.3648" />
    <path d="M 723.31115 -8.00299 L 723.31115 26.8979" />
    <path d="M 513.44374 -0.76225 L 723.31115 -8.00299" />
    <path d="M 513.44374 -0.76225 L 513.44374 98.95458" />
    <path d="M 497.99226 99.48768 L 513.44374 98.95458" />
    <path d="M 497.99226 -0.22915 L 497.99226 99.48768" />
    <path d="M 240.77061 8.64537 L 497.99226 -0.22915" />
    <path d="M 240.77061 8.64537 L 240.77061 108.3622" />
    <path d="M -0.00184 16.95197 L 225.31705 9.17813" />
    <path d="M -260.3101 -20.93401 A 30 27.1901 279.309 0 0 -237.89556 7.73014" />
    <path d="M -532.98323 -70.41306 L -532.98323 -11.52638 L -525.89437 -10.36439" />
    <path d="M -532.98323 -11.52638 A 30 27.1901 279.309 0 0 -510.56868 17.13777" />
    <path d="M -260.3101 -25.55213 L -260.3101 -20.93401 L -253.22125 -19.77202" />
    <path d="M -199.2575 -15.54454 A 30 27.1901 99.309 0 1 -230.8067 8.89213 L -237.89556 7.73014" />
    <path d="M -230.8067 8.89213 A 30 27.1901 99.309 0 1 -253.22125 -19.77202" />
    <path d="M -233.67967 -21.18694 L -233.67967 -20.44623 L -218.06553 -17.8868 L -217.9726 -18.61227" />
    <path d="M -506.3528 -66.04787 L -506.3528 -11.03861 L -490.73865 -8.47917 L -475.28717 -9.01227" />
    <path d="M -525.89437 -69.25108 L -525.89437 -10.36439" />
    <path d="M -471.35975 -12.24592 A 30 27.1901 99.309 0 1 -503.47983 18.29975 L -510.56868 17.13777" />
    <path d="M -503.47983 18.29975 A 30 27.1901 99.309 0 1 -525.89437 -10.36439" />
    <path d="M -471.35975 -12.24592 L -471.35975 -39.67454" />
    <path d="M -253.22125 -24.39015 L -253.22125 -19.77202" />
    <path d="M 197.4625 63.26538 L 198.68662 73.22372" />
    <path d="M 197.4625 63.26538 A 20 8.31621 88.02399 0 0 189.53085 48.18472" />
    <path d="M -477.65545 -61.17886 L -7.09069 15.95498" />
    <path d="M 175.06139 45.81292 L 189.53085 48.18472" />
    <path d="M -477.65545 -61.17886 A 20 8.31621 88.02399 0 0 -478.34507 -61.2236 A 20 8.31621 88.02399 0 0 -485.5871 -48.69847 L -470.13562 -49.23157 L -475.28717 -9.01227" />
    <path d="M -490.73865 -8.47917 L -485.5871 -48.69847" />
    <path d="M 471.35975 98.99956 A 30 27.1901 279.309 0 0 493.7743 127.66371 L 500.86315 128.8257 A 30 27.1901 99.309 0 1 478.4486 100.16155 L 471.35975 98.99956 L 471.35975 35.59019" />
    <path d="M 198.68662 108.40719 A 30 27.1901 279.309 0 0 221.10117 137.07133 L 228.19002 138.23332 A 30 27.1901 99.309 0 1 205.77548 109.56917 L 198.68662 108.40719 L 198.68662 44.99781" />
    <path d="M 532.98323 98.28002 A 30 27.1901 99.309 0 1 500.86315 128.8257" />
    <path d="M 478.4486 100.16155 L 478.4486 35.34561" />
    <path d="M 260.3101 42.87171 L 478.4486 35.34561" />
    <path d="M 260.3101 42.87171 L 260.3101 107.68765 A 30 27.1901 99.309 0 1 228.19002 138.23332" />
    <path d="M 205.77548 109.56917 L 205.77548 44.75324" />
    <path d="M 225.31705 108.89496 L 225.31705 9.17813" />
    <path d="M 225.31705 108.89496 L 240.76853 108.36186" />
    <path d="M 497.99018 99.48733 L 497.99018 -0.22949" />
    <path d="M 497.99018 99.48733 L 513.44165 98.95424" />
    <path d="M 723.30907 26.89756 L 723.30907 -8.00333" />
    <path d="M 532.98323 33.46408 L 723.30907 26.89756 L 723.31115 26.8979" />
    <path d="M 532.98323 33.46408 L 532.98323 98.28002" />
    <path d="M 225.31705 108.89496 L 225.31914 108.8953" />
    <path d="M 497.99018 99.48733 L 497.99226 99.48768" />
    <path d="M -218.06553 -17.8868 L -214.33249 -18.01559" />
    <path d="M 470.13562 53.85775 L 471.35975 63.8161" />
    <path d="M 470.13562 53.85775 A 20 8.31621 88.02399 0 0 462.20397 38.77709" />
    <path d="M 447.73451 36.40529 L 462.20397 38.77709" />
    <path d="M -466.64703 -59.37439 A 20 8.31621 88.02399 0 0 -470.13562 -49.23157" />
</svg>