<svg version="1.1" xmlns="http://www.w3.org/2000/svg" viewBox="-739.7626317812775 -147.58369475796974 1479.525263562555 287.14197443350486" fill="none" stroke="black" stroke-width="0.6%" vector-effect="non-scaling-stroke">
    <path d="M -738.76263 -104.14352 L -738.76263 -121.09539 L 0.00025 0.00045 L 738.76263 -25.48786 L -0.00025 -146.58369 L -738.76263 -121.09539" />
    <path d="M 0.00025 16.95231 L 0.00025 0.00045" />
    <path d="M -738.76263 -104.14352 L 0.00025 16.95231 L 225.31914 9.1785 L 225.31914 108.89533 L 240.77061 108.36223" />
    <path d="M 738.76263 -8.536 L 738.76263 -25.48786" />
    <path d="M 513.44374 -0.76219 L 738.76263 -8.536" />
    <path d="M 513.44374 -0.76219 L 513.44374 98.95464" />
    <path d="M 497.99226 99.48774 L 513.44374 98.95464" />
    <path d="M 497.99226 -0.22909 L 497.99226 99.48774" />
    <path d="M 240.77061 8.6454 L 497.99226 -0.22909" />
    <path d="M 240.77061 8.6454 L 240.77061 108.36223" />
    <path d="M 225.31705 108.89499 L 225.31914 108.89533" />
    <path d="M 225.31705 108.89499 L 240.76853 108.36189" />
    <path d="M 225.31705 108.89499 L 225.31705 9.17816" />
    <path d="M -532.98323 -11.52595 A 30 27.1901 279.30897 0 0 -510.56867 17.1382" />
    <path d="M -532.98323 -70.41277 L -532.98323 -11.52595 L -525.89437 -10.36396" />
    <path d="M -525.89437 -69.25079 L -525.89437 -10.36396" />
    <path d="M -471.35975 -12.24548 A 30 27.1901 99.30897 0 1 -503.47981 18.30019 L -510.56867 17.1382" />
    <path d="M -503.47981 18.30019 A 30 27.1901 99.30897 0 1 -525.89437 -10.36396" />
    <path d="M -471.35975 -12.24548 L -471.35975 -39.67412" />
    <path d="M -506.3528 -66.04759 L -506.3528 -11.03818 L -490.73865 -8.47875 L -475.28717 -9.01185" />
    <path d="M 197.4625 63.26542 L 198.68662 73.22377" />
    <path d="M 197.4625 63.26542 A 20 8.31621 88.024 0 0 189.53085 48.18476" />
    <path d="M -477.65545 -61.17845 L 189.53085 48.18476" />
    <path d="M -477.65545 -61.17845 A 20 8.31621 88.024 0 0 -478.34507 -61.22319 A 20 8.31621 88.024 0 0 -485.5871 -48.69805 L -470.13562 -49.23115 L -475.28717 -9.01185" />
    <path d="M -490.73865 -8.47875 L -485.5871 -48.69805" />
    <path d="M 198.68662 108.40722 A 30 27.1901 279.30897 0 0 221.10119 137.07137 L 228.19004 138.23335 A 30 27.1901 99.30897 0 1 205.77548 109.5692 L 198.68662 108.40722 L 198.68662 10.09736" />
    <path d="M 205.77548 109.5692 L 205.77548 9.85237" />
    <path d="M 260.3101 107.68768 A 30 27.1901 99.30897 0 1 228.19004 138.23335" />
    <path d="M 260.3101 7.97085 L 260.3101 107.68768" />
    <path d="M 532.98323 98.28009 A 30 27.1901 99.30897 0 1 500.86317 128.82576 A 30 27.1901 99.30897 0 1 478.4486 100.16161 L 471.35975 98.99962 A 30 27.1901 279.30897 0 0 493.77431 127.66377 L 500.86317 128.82576" />
    <path d="M 532.98323 -1.43674 L 532.98323 98.28009" />
    <path d="M 497.99018 99.48739 L 513.44165 98.9543" />
    <path d="M 497.99018 99.48739 L 497.99018 -0.22944" />
    <path d="M 478.4486 100.16161 L 478.4486 0.44477" />
    <path d="M 471.35975 98.99962 L 471.35975 0.68976" />
    <path d="M -199.25746 -15.54427 A 30 27.1901 99.30897 0 1 -230.80669 8.89259 L -237.89554 7.73061" />
    <path d="M -230.80669 8.89259 A 30 27.1901 99.30897 0 1 -253.22125 -19.77156" />
    <path d="M -233.67967 -21.18666 L -233.67967 -20.44577 L -218.06553 -17.88634 L -214.33156 -18.01517" />
    <path d="M -253.22125 -24.38986 L -253.22125 -19.77156" />
    <path d="M -260.3101 -20.93354 A 30 27.1901 279.30897 0 0 -237.89554 7.73061" />
    <path d="M -260.3101 -25.55184 L -260.3101 -20.93354 L -253.22125 -19.77156" />
    <path d="M 470.13562 53.85783 L 471.35975 63.81617" />
    <path d="M 470.13562 53.85783 A 20 8.31621 88.024 0 0 462.20397 38.77717" />
    <path d="M 271.841 7.57343 L 462.20397 38.77717" />
    <path d="M -218.06553 -17.88634 L -217.97258 -18.612" />
    <path d="M 497.99018 99.48739 L 497.99226 99.48774" />
    <path d="M -466.64703 -59.37398 A 20 8.31621 88.024 0 0 -470.13562 -49.23115" />
</svg>