<svg version="1.1" xmlns="http://www.w3.org/2000/svg" viewBox="-739.7624718709011 -52.981506932454934 1479.5249437418022 105.96289267033094" fill="none" stroke="black" stroke-width="0.6%" vector-effect="non-scaling-stroke">
    <path d="M -738.76247 -25.94892 L -738.76247 -42.94288 L 0 0 L 738.76247 -9.03863 L 0 -51.98151 L -738.76247 -42.94288" />
    <path d="M 0 16.99395 L 0 0" />
    <path d="M -0.00208 16.99383 L 0 16.99395 L 738.76247 7.95532 L 738.76247 -9.03863" />
    <path d="M -0.00208 16.99383 L -0.00208 51.98138 L 738.76039 42.94275" />
    <path d="M -7.09094 51.56932 L -0.00208 51.98138" />
    <path d="M -7.09094 16.58177 L -7.09094 51.56932" />
    <path d="M -731.67154 -25.53674 L -7.09094 16.58177" />
    <path d="M -731.67154 -25.53674 L -731.67154 9.45081 L -234.42757 3.36712" />
    <path d="M -738.76039 9.03875 L -731.67154 9.45081" />
    <path d="M -738.76039 -25.9488 L -738.76039 9.03875" />
    <path d="M -738.76247 -25.94892 L -738.76039 -25.9488" />
    <path d="M -0.00208 16.99383 L 738.76039 7.9552 L 738.76039 42.94275" />
</svg>