<svg version="1.1" xmlns="http://www.w3.org/2000/svg" viewBox="-739.7626317812778 -117.79025103773282 1479.5252635625554 229.38673092978473" fill="none" stroke="black" stroke-width="0.6%" vector-effect="non-scaling-stroke">
    <path d="M -738.76263 -79.51302 L -738.76263 -96.48248 L 0.00025 0.00046 L 738.76263 -20.30732 L -0.00025 -116.79025 L -738.76263 -96.48248" />
    <path d="M 0.00025 16.96991 L 0.00025 0.00046" />
    <path d="M -738.76263 -79.51302 L 0.00025 16.96991 L 225.31914 10.77614 L 225.31914 110.59648 L 240.77061 110.17173" />
    <path d="M -513.44374 -50.08622 L -513.44374 14.11354 L -490.73865 17.07884 L -485.5871 -23.35471 L -470.13562 -23.77946 L -475.28717 16.6541" />
    <path d="M -240.77061 -5.17634 L -240.77061 6.61806 L -218.06553 9.58336 L -216.58742 -2.018" />
    <path d="M 738.76263 -3.33786 L 738.76263 -20.30732" />
    <path d="M 513.44374 2.85591 L 738.76263 -3.33786" />
    <path d="M 513.44374 2.85591 L 513.44374 102.67625" />
    <path d="M 497.99226 103.10099 L 513.44374 102.67625" />
    <path d="M 497.99226 3.28066 L 497.99226 103.10099" />
    <path d="M 240.77061 10.3514 L 497.99226 3.28066" />
    <path d="M 240.77061 10.3514 L 240.77061 110.17173" />
    <path d="M 202.61405 107.63118 L 225.31914 110.59648" />
    <path d="M 197.4625 65.85203 L 202.61405 107.63118" />
    <path d="M 197.4625 65.85203 A 20 8.32484 88.4254 0 0 189.53085 51.02132" />
    <path d="M -477.65545 -36.11366 L 189.53085 51.02132" />
    <path d="M -477.65545 -36.11366 A 20 8.32484 88.4254 0 0 -478.20502 -36.14205 A 20 8.32484 88.4254 0 0 -485.5871 -23.35471" />
    <path d="M -490.73865 17.07884 L -475.28717 16.6541" />
    <path d="M -466.20136 -34.61775 A 20 8.32484 88.4254 0 0 -470.13562 -23.77946" />
    <path d="M -201.44207 -0.04001 L -202.61405 9.15861" />
    <path d="M 475.28717 100.13569 L 497.99226 103.10099" />
    <path d="M 470.13562 58.35654 L 475.28717 100.13569" />
    <path d="M 470.13562 58.35654 A 20 8.32484 88.4254 0 0 462.20397 43.52583" />
    <path d="M 240.77061 14.60649 L 462.20397 43.52583" />
    <path d="M -218.06553 9.58336 L -202.61405 9.15861" />
</svg>