<svg version="1.1" xmlns="http://www.w3.org/2000/svg" viewBox="-739.761271901728 -147.583356864971 1479.522543803456 287.14205666256953" fill="none" stroke="black" stroke-width="0.6%" vector-effect="non-scaling-stroke">
    <path d="M -738.76127 -104.14342 L -738.76127 -121.09528 L -0.00184 0.00011 L 738.76127 -25.48797 L 0.00184 -146.58336 L -738.76127 -121.09528" />
    <path d="M -0.00184 16.95197 L -0.00184 0.00011" />
    <path d="M -738.76127 -104.14342 L -0.00184 16.95197 L 205.77568 9.85244 L 260.31036 7.97093 L 478.44907 0.44493 L 532.98375 -1.43657 L 738.76127 -8.5361 L 738.76127 -25.48797" />
    <path d="M 205.77777 9.85278 L 260.31244 7.97128 L 260.31036 7.97093" />
    <path d="M 205.77777 9.85278 L 205.77568 9.85244" />
    <path d="M 478.45116 0.44527 L 532.98584 -1.43623 L 532.98584 98.2806 A 30 27.19013 99.30898 0 1 500.86574 128.82626 A 30 27.19013 99.30898 0 1 478.45116 100.1621 L 471.36234 99.00012 A 30 27.19013 279.30898 0 0 493.77692 127.66428 L 500.86574 128.82626" />
    <path d="M 532.98584 -1.43623 L 532.98375 -1.43657" />
    <path d="M 478.45116 0.44527 L 478.44907 0.44493" />
    <path d="M -532.98584 -11.52646 L -525.89701 -10.36448" />
    <path d="M -532.98584 -70.41329 L -532.98584 -11.52646 A 30 27.19013 279.30898 0 0 -510.57125 17.1377" />
    <path d="M -525.89701 -69.25131 L -525.89701 -10.36448" />
    <path d="M -471.36234 -12.24598 A 30 27.19013 99.30898 0 1 -503.48243 18.29968 A 30 27.19013 99.30898 0 1 -525.89701 -10.36448" />
    <path d="M -471.36234 -12.24598 L -471.36234 -39.64226" />
    <path d="M -506.35542 -66.0481 L -506.35542 -11.03869 L -490.73718 -8.47859 L -475.28568 -9.01168" />
    <path d="M 197.46076 63.26517 L 198.68894 73.25654" />
    <path d="M 197.46076 63.26517 A 20 8.31617 88.02402 0 0 189.52915 48.18452" />
    <path d="M -477.65403 -61.17829 L 189.52915 48.18452" />
    <path d="M -477.65403 -61.17829 A 20 8.31617 88.02402 0 0 -478.34364 -61.22303 A 20 8.31617 88.02402 0 0 -485.58565 -48.69789 L -470.13415 -49.23099 L -475.28568 -9.01168" />
    <path d="M -490.73718 -8.47859 L -485.58565 -48.69789" />
    <path d="M 198.68894 108.40763 A 30 27.19013 279.30898 0 0 221.10353 137.07179 L 228.19235 138.23377 A 30 27.19013 99.30898 0 1 205.77777 109.56961 L 198.68894 108.40763 L 198.68894 10.09694" />
    <path d="M 205.77777 109.56961 L 205.77777 9.85278" />
    <path d="M 471.36234 99.00012 L 471.36234 0.68943" />
    <path d="M -199.25978 -15.54468 A 30 27.19013 99.30898 0 1 -230.80904 8.89217 L -237.89786 7.73019" />
    <path d="M -230.80904 8.89217 A 30 27.19013 99.30898 0 1 -253.22362 -19.77199" />
    <path d="M -233.68203 -21.18708 L -233.68203 -20.44619 L -218.06378 -17.88609 L -214.32981 -18.01492" />
    <path d="M -253.22362 -24.39029 L -253.22362 -19.77199" />
    <path d="M -260.31244 -25.55227 L -260.31244 -20.93397 L -253.22362 -19.77199" />
    <path d="M -260.31244 -20.93397 A 30 27.19013 279.30898 0 0 -237.89786 7.73019" />
    <path d="M 470.13415 53.85766 L 471.36234 63.84903" />
    <path d="M 470.13415 53.85766 A 20 8.31617 88.02402 0 0 462.20254 38.77701" />
    <path d="M 271.83919 7.57318 L 462.20254 38.77701" />
    <path d="M -218.06378 -17.88609 L -217.97084 -18.61175" />
    <path d="M 478.45116 100.1621 L 478.45116 0.44527" />
    <path d="M 260.31244 7.97128 L 260.31244 107.68811 A 30 27.19013 99.30898 0 1 228.19235 138.23377" />
    <path d="M -466.64558 -59.37382 A 20 8.31617 88.02402 0 0 -470.13415 -49.23099" />
    <path d="M -503.48243 18.29968 L -510.57125 17.1377" />
</svg>