<svg version="1.1" xmlns="http://www.w3.org/2000/svg" viewBox="-739.7611120068198 -167.39004979725686 1479.5222240136395 325.672884859201" fill="none" stroke="black" stroke-width="0.6%" vector-effect="non-scaling-stroke">
    <path d="M -738.76111 -120.52012 L -738.76111 -137.45807 L -0.00208 -0.00039 L 738.76111 -28.93236 L 0.00208 -166.39005 L -738.76111 -137.45807" />
    <path d="M -0.00208 16.93756 L -0.00208 -0.00039" />
    <path d="M -738.76111 -120.52012 L -0.00208 16.93756 L 205.77546 8.87875 L 260.31014 6.74303 L 478.44888 -1.79988 L 532.98357 -3.93561 L 738.76111 -11.99442 L 738.76111 -28.93236" />
    <path d="M 205.77754 8.87914 L 260.31223 6.74341 L 260.31014 6.74303" />
    <path d="M 205.77754 8.87914 L 205.77546 8.87875" />
    <path d="M 478.45097 -1.79949 L 532.98565 -3.93522 L 532.98565 115.62677 A 30 27.16781 100.54024 0 1 500.23053 146.18843 A 30 27.16781 100.54024 0 1 478.45097 117.7625 L 471.36215 116.44351 A 30 27.16781 280.54024 0 0 493.14171 144.86945 L 500.23053 146.18843" />
    <path d="M 532.98565 -3.93522 L 532.98357 -3.93561" />
    <path d="M 478.45097 -1.79949 L 478.44888 -1.79988" />
    <path d="M -532.98565 -9.01733 L -525.89683 -7.69834" />
    <path d="M -532.98565 -82.23238 L -532.98565 -9.01733 A 30 27.16781 280.54024 0 0 -511.20609 19.40861" />
    <path d="M -525.89683 -80.91339 L -525.89683 -7.69834" />
    <path d="M -471.36215 -9.83407 A 30 27.16781 100.54024 0 1 -504.11728 20.72759 L -511.20609 19.40861" />
    <path d="M -504.11728 20.72759 A 30 27.16781 100.54024 0 1 -525.89683 -7.69834" />
    <path d="M -471.36215 -9.83407 L -471.36215 -56.60786" />
    <path d="M -506.35524 -77.27737 L -506.35524 -28.39064 L -490.737 -25.48463 L -475.28551 -26.08975" />
    <path d="M 197.46056 61.53528 L 198.68873 71.54571" />
    <path d="M 197.46056 61.53528 A 20 8.30934 87.75729 0 0 189.52895 46.29026" />
    <path d="M 26.24913 15.90949 L 189.52895 46.29026" />
    <path d="M -483.58264 -73.04017 A 20 8.30934 87.75729 0 0 -485.58548 -65.55613 L -470.13398 -66.16126 L -475.28551 -26.08975" />
    <path d="M -490.737 -25.48463 L -485.58548 -65.55613" />
    <path d="M 198.68873 127.12215 A 30 27.16781 280.54024 0 0 220.46829 155.54808 L 227.5571 156.86707 A 30 27.16781 100.54024 0 1 205.77754 128.44113 L 198.68873 127.12215 L 198.68873 9.15629" />
    <path d="M 205.77754 128.44113 L 205.77754 8.87914" />
    <path d="M 471.36215 116.44351 L 471.36215 -1.52234" />
    <path d="M -198.69225 -20.03186 A 30 27.16781 100.54024 0 1 -231.44385 10.04896 L -238.53267 8.72997" />
    <path d="M -231.44385 10.04896 A 30 27.16781 100.54024 0 1 -253.22341 -18.37698" />
    <path d="M -253.22341 -30.17823 L -253.22341 -18.37698" />
    <path d="M -260.31223 -31.49722 L -260.31223 -19.69596 L -253.22341 -18.37698" />
    <path d="M -260.31223 -19.69596 A 30 27.16781 280.54024 0 0 -238.53267 8.72997" />
    <path d="M 470.13398 50.85664 L 471.36215 60.86707" />
    <path d="M 470.13398 50.85664 A 20 8.30934 87.75729 0 0 462.20237 35.61163" />
    <path d="M 298.92255 5.23086 L 462.20237 35.61163" />
    <path d="M 478.45097 117.7625 L 478.45097 -1.79949" />
    <path d="M 260.31223 6.74341 L 260.31223 126.3054 A 30 27.16781 100.54024 0 1 227.5571 156.86707" />
    <path d="M -469.28153 -70.37923 A 20 8.30934 87.75729 0 0 -470.13398 -66.16126" />
</svg>